<?xml version="1.0" encoding="UTF-8"?>
<!DOCTYPE svg PUBLIC "-//W3C//DTD SVG 1.1//EN" "http://www.w3.org/Graphics/SVG/1.1/DTD/svg11.dtd">
<svg xmlns="http://www.w3.org/2000/svg" xmlns:xlink="http://www.w3.org/1999/xlink" width="100%" height="100%" viewBox="0 0 100 100">
	<g style="fill: #808080; stroke: #808080; stroke-linejoin: round">
		<path d="M 20,27 L 80,27 L 80,87 A 5 5 0 0 1 75,92 L 25,92 A 5 5 0 0 1 20,87 Z" />
		<rect x="16" y="17" width="68" height="7.5" rx="0.5" ry="0.5" />
		<path d="M 38,17 L 38,14 A 6 6 0 0 1 44,8 L 56,8 A 6 6 0 0 1 62,14 L 62,17 L 57,17 L 57,14 A 2 2 0 0 0 55,12 L 45,12 A 2 2 0 0 0 43,14 L 43,17 Z" />
	</g>
	<g style="fill: #606060; stroke: #606060; stroke-linejoin: round">
		<rect x="28" y="36" width="6.5" height="50" rx="1" ry="1"/>
		<rect x="40.5" y="36" width="6.5" height="50" rx="1" ry="1"/>
		<rect x="53" y="36" width="6.5" height="50" rx="1" ry="1"/>
		<rect x="65.5" y="36" width="6.5" height="50" rx="1" ry="1"/>
	</g>
</svg>